<?xml version="1.0" standalone="no"?>
<!DOCTYPE svg PUBLIC "-//W3C//DTD SVG 20010904//EN"
 "http://www.w3.org/TR/2001/REC-SVG-20010904/DTD/svg10.dtd">
<svg version="1.0" xmlns="http://www.w3.org/2000/svg"
 width="512.000000pt" height="512.000000pt" viewBox="0 0 512.000000 512.000000"
 preserveAspectRatio="xMidYMid meet">
<metadata>
Created by potrace 1.14, written by Peter Selinger 2001-2017
</metadata>
<g transform="translate(0.000000,512.000000) scale(0.100000,-0.100000)"
fill="#000000" stroke="none">
<path d="M2157 4794 c-1 -1 -42 -5 -92 -8 -431 -29 -852 -191 -1204 -464 -126
-97 -314 -290 -414 -423 -48 -64 -87 -119 -87 -122 0 -3 -13 -25 -29 -49 -45
-67 -105 -185 -149 -288 -39 -95 -54 -131 -57 -140 -1 -3 -11 -36 -23 -74 -40
-123 -76 -297 -90 -431 -14 -135 -7 -461 13 -570 38 -211 77 -353 141 -509
342 -834 1158 -1386 2054 -1389 94 -1 291 11 312 17 7 3 31 7 53 10 71 10 109
17 150 28 22 5 47 11 56 13 74 14 254 80 404 147 116 52 246 103 305 118 19 5
78 20 130 34 52 14 97 25 100 25 11 0 106 14 125 18 39 10 351 11 410 2 33 -5
71 -11 85 -13 132 -20 253 -62 425 -147 154 -76 183 -81 251 -48 53 25 85 75
89 136 6 98 -34 141 -219 231 -275 135 -500 186 -824 187 -83 0 -152 2 -152 4
0 2 24 34 53 70 245 306 418 696 468 1057 5 40 12 83 15 96 3 13 6 106 8 208
4 227 -12 380 -60 572 -80 318 -211 589 -413 848 -61 78 -235 261 -306 321
-300 251 -641 415 -1030 495 -44 8 -163 24 -225 29 -77 7 -269 13 -273 9z
m193 -571 c137 -33 251 -126 315 -256 178 -366 -154 -777 -546 -675 -302 79
-450 403 -311 686 15 30 54 83 87 116 122 123 287 169 455 129z m-1061 -823
c98 -38 169 -95 229 -182 168 -244 77 -574 -194 -704 -66 -31 -87 -37 -173
-41 -82 -5 -110 -2 -168 15 -142 44 -259 155 -313 297 -35 94 -34 290 1 330 5
5 9 15 9 23 0 20 73 122 117 163 49 47 119 87 191 109 79 25 226 20 301 -10z
m2171 15 c190 -51 330 -200 361 -387 38 -231 -99 -460 -323 -537 -45 -16 -79
-19 -155 -17 -114 3 -128 6 -208 45 -81 40 -135 89 -188 169 -53 80 -77 158
-78 249 0 97 8 138 47 218 99 207 330 317 544 260z m-1144 -684 c23 -10 53
-34 67 -53 32 -41 51 -117 38 -151 -6 -14 -8 -27 -6 -28 10 -11 -56 -86 -94
-106 -111 -58 -242 4 -270 128 -26 116 64 229 184 229 22 0 59 -9 81 -19z
m-641 -628 c133 -37 231 -118 299 -246 55 -102 67 -224 34 -347 -11 -41 -24
-80 -30 -87 -6 -7 -18 -26 -27 -42 -53 -94 -178 -182 -299 -211 -33 -8 -86
-10 -137 -7 -306 20 -512 312 -429 608 25 88 58 145 124 210 96 94 204 138
335 137 44 0 103 -7 130 -15z m1367 2 c84 -22 150 -59 212 -120 65 -64 88 -96
114 -167 28 -74 34 -109 34 -182 -2 -250 -193 -454 -441 -473 -413 -30 -669
434 -422 767 111 150 318 222 503 175z"/>
</g>
</svg>
